<svg width="172" height="127" viewBox="0 0 172 127" fill="none" xmlns="http://www.w3.org/2000/svg">
<path d="M15.9856 6.5C15.7858 8.97828 13.7428 11 11.5 11C9.25719 11 7.21062 8.97875 7.01438 6.5C6.81049 3.92188 8.79843 2 11.5 2C14.2016 2 16.1895 3.96875 15.9856 6.5Z" stroke="#CED4DA" stroke-width="1.49989" stroke-linecap="round" stroke-linejoin="round"/>
<path d="M11.4998 14C7.19523 14 2.82639 16.4 2.01793 20.93C1.92046 21.476 2.22623 22 2.79176 22H20.2078C20.7738 22 21.0795 21.476 20.9821 20.93C20.1731 16.4 15.8043 14 11.4998 14Z" stroke="#CED4DA" stroke-width="1.49989" stroke-miterlimit="10"/>
<path d="M27 1.75C27 1.55109 27.079 1.36032 27.2197 1.21967C27.3603 1.07902 27.5511 1 27.75 1H30C30.1673 1.00005 30.3298 1.05603 30.4616 1.15904C30.5934 1.26205 30.687 1.40618 30.7275 1.5685L31.335 4H48.75C48.8601 4.0001 48.9689 4.02445 49.0685 4.07133C49.1682 4.1182 49.2563 4.18644 49.3266 4.27121C49.3969 4.35597 49.4477 4.45518 49.4753 4.56178C49.5029 4.66838 49.5068 4.77976 49.4865 4.888L47.2365 16.888C47.2043 17.0599 47.1131 17.2151 46.9786 17.3268C46.8442 17.4386 46.6749 17.4998 46.5 17.5H33C32.8251 17.4998 32.6558 17.4386 32.5214 17.3268C32.3869 17.2151 32.2957 17.0599 32.2635 16.888L30.015 4.9105L29.415 2.5H27.75C27.5511 2.5 27.3603 2.42098 27.2197 2.28033C27.079 2.13968 27 1.94891 27 1.75ZM31.653 5.5L33.6225 16H45.8775L47.847 5.5H31.653ZM34.5 17.5C33.7044 17.5 32.9413 17.8161 32.3787 18.3787C31.8161 18.9413 31.5 19.7044 31.5 20.5C31.5 21.2956 31.8161 22.0587 32.3787 22.6213C32.9413 23.1839 33.7044 23.5 34.5 23.5C35.2957 23.5 36.0587 23.1839 36.6213 22.6213C37.1839 22.0587 37.5 21.2956 37.5 20.5C37.5 19.7044 37.1839 18.9413 36.6213 18.3787C36.0587 17.8161 35.2957 17.5 34.5 17.5ZM45 17.5C44.2044 17.5 43.4413 17.8161 42.8787 18.3787C42.3161 18.9413 42 19.7044 42 20.5C42 21.2956 42.3161 22.0587 42.8787 22.6213C43.4413 23.1839 44.2044 23.5 45 23.5C45.7957 23.5 46.5587 23.1839 47.1213 22.6213C47.6839 22.0587 48 21.2956 48 20.5C48 19.7044 47.6839 18.9413 47.1213 18.3787C46.5587 17.8161 45.7957 17.5 45 17.5ZM34.5 19C34.8978 19 35.2794 19.158 35.5607 19.4393C35.842 19.7206 36 20.1022 36 20.5C36 20.8978 35.842 21.2794 35.5607 21.5607C35.2794 21.842 34.8978 22 34.5 22C34.1022 22 33.7206 21.842 33.4393 21.5607C33.158 21.2794 33 20.8978 33 20.5C33 20.1022 33.158 19.7206 33.4393 19.4393C33.7206 19.158 34.1022 19 34.5 19ZM45 19C45.3978 19 45.7794 19.158 46.0607 19.4393C46.342 19.7206 46.5 20.1022 46.5 20.5C46.5 20.8978 46.342 21.2794 46.0607 21.5607C45.7794 21.842 45.3978 22 45 22C44.6022 22 44.2206 21.842 43.9393 21.5607C43.658 21.2794 43.5 20.8978 43.5 20.5C43.5 20.1022 43.658 19.7206 43.9393 19.4393C44.2206 19.158 44.6022 19 45 19Z" fill="#CED4DA"/>
<g clip-path="url(#clip0_23_34)">
<path d="M25.8518 57.9026H24.6292V53.0125C24.6292 47.6187 20.2428 43.2323 14.849 43.2323C9.45524 43.2323 5.06881 47.6187 5.06881 53.0125V57.9026H3.84629C1.82505 57.9026 0.178711 59.5473 0.178711 61.5702V78.6855C0.178711 80.7084 1.82505 82.3531 3.84629 82.3531H25.8518C27.873 82.3531 29.5193 80.7084 29.5193 78.6855V61.5702C29.5193 59.5473 27.873 57.9026 25.8518 57.9026ZM8.32888 53.0125C8.32888 49.4166 11.2532 46.4924 14.849 46.4924C18.4449 46.4924 21.3692 49.4166 21.3692 53.0125V57.9026H8.32888V53.0125Z" fill="#212529"/>
<path d="M15.6259 72.4684H13.8114V71.4888C13.8114 71.0606 13.8595 70.7448 13.9559 70.5414C14.0629 70.3273 14.2878 70.0489 14.6303 69.7064L15.8026 68.5341C16.0488 68.2665 16.1719 67.9346 16.1719 67.5385C16.1719 67.1424 16.0435 66.8159 15.7865 66.559C15.5296 66.2913 15.1977 66.1575 14.7909 66.1575C14.3841 66.1575 14.0415 66.286 13.7632 66.5429C13.4956 66.7891 13.3403 67.121 13.2975 67.5385H11.3545C11.4615 66.5857 11.8309 65.8417 12.4625 65.3064C13.1048 64.7604 13.9024 64.4875 14.8551 64.4875C15.8079 64.4875 16.5841 64.7497 17.1836 65.2743C17.7831 65.7882 18.0828 66.5108 18.0828 67.4422C18.0828 68.0845 17.9062 68.6198 17.5529 69.048C17.3495 69.3049 17.1943 69.4869 17.0872 69.594C16.9802 69.701 16.8357 69.8402 16.6537 70.0115C16.4824 70.1721 16.3325 70.3166 16.204 70.445C16.0863 70.5628 15.9899 70.6645 15.915 70.7502C15.7223 70.9857 15.6259 71.3175 15.6259 71.7458V72.4684ZM14.7427 76.0333C14.4109 76.0333 14.1218 75.9209 13.8756 75.6961C13.6294 75.4606 13.5063 75.1822 13.5063 74.861C13.5063 74.5292 13.624 74.2455 13.8595 74.01C14.1058 73.7744 14.3948 73.6567 14.7267 73.6567C15.0693 73.6567 15.3637 73.7744 15.6099 74.01C15.8561 74.2348 15.9792 74.5131 15.9792 74.845C15.9792 75.1662 15.8561 75.4445 15.6099 75.68C15.3744 75.9155 15.0853 76.0333 14.7427 76.0333Z" fill="white"/>
</g>
<path d="M68.386 16.386L72.4737 20.4737M68.386 16.386C65.4442 19.3279 60.6745 19.3279 57.7327 16.386C54.7908 13.4442 54.7908 8.6745 57.7327 5.7327C60.6745 2.7908 65.4442 2.7908 68.386 5.7327C71.3279 8.6745 71.3279 13.4442 68.386 16.386Z" stroke="#CED4DA" stroke-linecap="round" stroke-linejoin="round"/>
<g clip-path="url(#clip1_23_34)">
<mask id="mask0_23_34" style="mask-type:luminance" maskUnits="userSpaceOnUse" x="0" y="87" width="40" height="40">
<path d="M40 87H0V127H40V87Z" fill="white"/>
</mask>
<g mask="url(#mask0_23_34)">
<path d="M21.6255 122.312H18.3745C17.943 122.312 17.5933 122.662 17.5933 123.094C17.5933 123.525 17.943 123.875 18.3745 123.875H21.6255C22.057 123.875 22.4068 123.525 22.4068 123.094C22.4068 122.662 22.057 122.312 21.6255 122.312Z" fill="black"/>
<path d="M35.625 93.2501H30.9375V91.5531C31.8468 91.2306 32.5 90.3623 32.5 89.3438C32.5 88.0514 31.4486 87 30.1562 87H9.84375C8.55141 87 7.5 88.0514 7.5 89.3438C7.5 90.3623 8.1532 91.2306 9.0625 91.5531V93.2501H4.375C3.94352 93.2501 3.59375 93.5999 3.59375 94.0313V99.5001C3.59375 102.946 6.3975 105.75 9.84375 105.75H10.5043C10.6545 106.012 10.8149 106.269 10.9877 106.52C12.0935 108.125 13.586 109.394 15.3291 110.222C15.3185 110.312 15.3125 110.403 15.3125 110.496C15.3125 111.591 16.067 112.512 17.083 112.769C16.1443 115.897 14.4761 119.188 12.5 119.188H10.625C10.231 119.188 9.89867 119.481 9.84977 119.872L9.06852 126.122C9.0407 126.344 9.10977 126.568 9.25805 126.736C9.40633 126.904 9.61969 127 9.84375 127H30.1562C30.3803 127 30.5937 126.904 30.742 126.736C30.8902 126.568 30.9593 126.344 30.9315 126.122L30.1502 119.872C30.1014 119.481 29.7691 119.188 29.375 119.188H27.5C26.304 119.188 25.2934 117.932 24.6563 116.878C23.8376 115.524 23.2658 113.929 22.9171 112.769C23.9332 112.512 24.6875 111.591 24.6875 110.496C24.6875 110.403 24.6815 110.312 24.6709 110.222C26.4143 109.394 27.907 108.124 29.0129 106.519C29.1854 106.268 29.3457 106.012 29.4957 105.75H30.1562C33.6025 105.75 36.4062 102.946 36.4062 99.5001V94.0313C36.4062 93.5999 36.0565 93.2501 35.625 93.2501ZM5.15625 99.5001V94.8126H9.0625V100.34C9.0625 101.667 9.30313 102.965 9.76539 104.186C7.2168 104.143 5.15625 102.059 5.15625 99.5001ZM29.2712 125.438H10.7288L11.3147 120.75H28.6853L29.2712 125.438ZM24.4202 119.188H15.5799C15.9595 118.771 16.3256 118.273 16.6772 117.692C17.6758 116.043 18.3313 114.1 18.6898 112.84H21.3102C21.6691 114.101 22.3233 116.04 23.3193 117.687C23.672 118.27 24.0392 118.77 24.4202 119.188ZM22.3438 111.277H17.6562C17.2255 111.277 16.875 110.927 16.875 110.496C16.875 110.065 17.2255 109.715 17.6562 109.715H22.3438C22.7745 109.715 23.125 110.065 23.125 110.496C23.125 110.927 22.7745 111.277 22.3438 111.277ZM23.9803 108.821C23.5576 108.408 22.98 108.152 22.3438 108.152H17.6562C17.02 108.152 16.4425 108.408 16.0197 108.821C12.7259 107.27 10.625 103.997 10.625 100.34V91.6875H16.4841C16.9156 91.6875 17.2654 91.3377 17.2654 90.9062C17.2654 90.4748 16.9156 90.125 16.4841 90.125H9.84375C9.41297 90.125 9.0625 89.7745 9.0625 89.3438C9.0625 88.913 9.41297 88.5625 9.84375 88.5625H30.1562C30.587 88.5625 30.9375 88.913 30.9375 89.3438C30.9375 89.7746 30.587 90.125 30.1562 90.125H23.5154C23.0839 90.125 22.7341 90.4748 22.7341 90.9062C22.7341 91.3377 23.0839 91.6875 23.5154 91.6875H29.375V100.34C29.375 103.997 27.274 107.27 23.9803 108.821ZM34.8438 99.5001C34.8438 102.059 32.7832 104.143 30.2346 104.186C30.6969 102.965 30.9375 101.667 30.9375 100.34V94.8126H34.8438V99.5001Z" fill="black"/>
<path d="M23.9916 97.1877L22.2394 96.8773L21.3692 95.2766C21.3692 95.2765 21.3693 95.2766 21.3692 95.2766C21.2232 95.0082 21.0031 94.79 20.7332 94.6461C20.3656 94.4501 19.9438 94.409 19.5453 94.5302C19.1468 94.6515 18.8194 94.9207 18.6232 95.2885L17.7867 96.8589L16.0294 97.1856C15.7145 97.2361 15.4267 97.3797 15.1959 97.6015C14.8956 97.8905 14.7257 98.2791 14.7176 98.6959C14.7095 99.1126 14.8642 99.5076 15.1538 99.8084L16.3897 101.09L16.163 102.819C16.1021 103.149 16.1475 103.482 16.2949 103.785C16.4776 104.16 16.7954 104.442 17.1899 104.578C17.3568 104.635 17.5291 104.664 17.7006 104.664C17.9343 104.664 18.1668 104.611 18.3831 104.506L19.9819 103.727L21.6274 104.511C21.9021 104.642 22.2085 104.689 22.5135 104.647C22.9264 104.59 23.2924 104.376 23.544 104.043C23.7956 103.711 23.9027 103.3 23.8454 102.886L23.599 101.123L24.8073 99.8486C25.0462 99.6178 25.2024 99.3231 25.2598 98.9946C25.4077 98.1462 24.8381 97.3355 23.9916 97.1877ZM23.6871 98.759L22.2062 100.321C22.0426 100.493 21.9665 100.731 21.9994 100.967L22.2998 103.101L20.3141 102.155C20.0994 102.053 19.8499 102.054 19.6361 102.158L17.6996 103.102C17.7034 103.083 17.7066 103.064 17.709 103.046L17.9877 100.921C18.0187 100.685 17.9406 100.448 17.7756 100.277L16.2773 98.7282C16.2861 98.7269 16.2949 98.7254 16.3037 98.7238L18.4418 98.3264C18.6756 98.2829 18.8768 98.1355 18.9886 97.9256L19.9979 96.0259L21.0462 97.9542C21.1597 98.1631 21.3622 98.3089 21.5963 98.3503L23.721 98.7252C23.7095 98.7361 23.6981 98.7474 23.6871 98.759Z" fill="black"/>
<path d="M20.0002 91.6875C20.4317 91.6875 20.7815 91.3377 20.7815 90.9062C20.7815 90.4748 20.4317 90.125 20.0002 90.125C19.5687 90.125 19.2188 90.4748 19.2188 90.9062C19.2188 91.3377 19.5688 91.6875 20.0002 91.6875Z" fill="black"/>
<mask id="mask1_23_34" style="mask-type:luminance" maskUnits="userSpaceOnUse" x="0" y="87" width="40" height="40">
<path d="M40 87H0V127H40V87Z" fill="white"/>
</mask>
<g mask="url(#mask1_23_34)">
<path d="M21.6255 122.312H18.3745C17.943 122.312 17.5933 122.662 17.5933 123.094C17.5933 123.525 17.943 123.875 18.3745 123.875H21.6255C22.057 123.875 22.4068 123.525 22.4068 123.094C22.4068 122.662 22.057 122.312 21.6255 122.312Z" fill="black"/>
<path d="M35.625 93.2501H30.9375V91.5531C31.8468 91.2306 32.5 90.3623 32.5 89.3438C32.5 88.0514 31.4486 87 30.1562 87H9.84375C8.55141 87 7.5 88.0514 7.5 89.3438C7.5 90.3623 8.1532 91.2306 9.0625 91.5531V93.2501H4.375C3.94352 93.2501 3.59375 93.5999 3.59375 94.0313V99.5001C3.59375 102.946 6.3975 105.75 9.84375 105.75H10.5043C10.6545 106.012 10.8149 106.269 10.9877 106.52C12.0935 108.125 13.586 109.394 15.3291 110.222C15.3185 110.312 15.3125 110.403 15.3125 110.496C15.3125 111.591 16.067 112.512 17.083 112.769C16.1443 115.897 14.4761 119.188 12.5 119.188H10.625C10.231 119.188 9.89867 119.481 9.84977 119.872L9.06852 126.122C9.0407 126.344 9.10977 126.568 9.25805 126.736C9.40633 126.904 9.61969 127 9.84375 127H30.1562C30.3803 127 30.5937 126.904 30.742 126.736C30.8902 126.568 30.9593 126.344 30.9315 126.122L30.1502 119.872C30.1014 119.481 29.7691 119.188 29.375 119.188H27.5C26.304 119.188 25.2934 117.932 24.6563 116.878C23.8376 115.524 23.2658 113.929 22.9171 112.769C23.9332 112.512 24.6875 111.591 24.6875 110.496C24.6875 110.403 24.6815 110.312 24.6709 110.222C26.4143 109.394 27.907 108.124 29.0129 106.519C29.1854 106.268 29.3457 106.012 29.4957 105.75H30.1562C33.6025 105.75 36.4062 102.946 36.4062 99.5001V94.0313C36.4062 93.5999 36.0565 93.2501 35.625 93.2501ZM5.15625 99.5001V94.8126H9.0625V100.34C9.0625 101.667 9.30313 102.965 9.76539 104.186C7.2168 104.143 5.15625 102.059 5.15625 99.5001ZM29.2712 125.438H10.7288L11.3147 120.75H28.6853L29.2712 125.438ZM24.4202 119.188H15.5799C15.9595 118.771 16.3256 118.273 16.6772 117.692C17.6758 116.043 18.3313 114.1 18.6898 112.84H21.3102C21.6691 114.101 22.3233 116.04 23.3193 117.687C23.672 118.27 24.0392 118.77 24.4202 119.188ZM22.3438 111.277H17.6562C17.2255 111.277 16.875 110.927 16.875 110.496C16.875 110.065 17.2255 109.715 17.6562 109.715H22.3438C22.7745 109.715 23.125 110.065 23.125 110.496C23.125 110.927 22.7745 111.277 22.3438 111.277ZM23.9803 108.821C23.5576 108.408 22.98 108.152 22.3438 108.152H17.6562C17.02 108.152 16.4425 108.408 16.0197 108.821C12.7259 107.27 10.625 103.997 10.625 100.34V91.6875H16.4841C16.9156 91.6875 17.2654 91.3377 17.2654 90.9062C17.2654 90.4748 16.9156 90.125 16.4841 90.125H9.84375C9.41297 90.125 9.0625 89.7745 9.0625 89.3438C9.0625 88.913 9.41297 88.5625 9.84375 88.5625H30.1562C30.587 88.5625 30.9375 88.913 30.9375 89.3438C30.9375 89.7746 30.587 90.125 30.1562 90.125H23.5154C23.0839 90.125 22.7341 90.4748 22.7341 90.9062C22.7341 91.3377 23.0839 91.6875 23.5154 91.6875H29.375V100.34C29.375 103.997 27.274 107.27 23.9803 108.821ZM34.8438 99.5001C34.8438 102.059 32.7832 104.143 30.2346 104.186C30.6969 102.965 30.9375 101.667 30.9375 100.34V94.8126H34.8438V99.5001Z" fill="black"/>
<path d="M23.9916 97.1877L22.2394 96.8773L21.3692 95.2766C21.3692 95.2765 21.3693 95.2766 21.3692 95.2766C21.2232 95.0082 21.0031 94.79 20.7332 94.6461C20.3656 94.4501 19.9438 94.409 19.5453 94.5302C19.1468 94.6515 18.8194 94.9207 18.6232 95.2885L17.7867 96.8589L16.0294 97.1856C15.7145 97.2361 15.4267 97.3797 15.1959 97.6015C14.8956 97.8905 14.7257 98.2791 14.7176 98.6959C14.7095 99.1126 14.8642 99.5076 15.1538 99.8084L16.3897 101.09L16.163 102.819C16.1021 103.149 16.1475 103.482 16.2949 103.785C16.4776 104.16 16.7954 104.442 17.1899 104.578C17.3568 104.635 17.5291 104.664 17.7006 104.664C17.9343 104.664 18.1668 104.611 18.3831 104.506L19.9819 103.727L21.6274 104.511C21.9021 104.642 22.2085 104.689 22.5135 104.647C22.9264 104.59 23.2924 104.376 23.544 104.043C23.7956 103.711 23.9027 103.3 23.8454 102.886L23.599 101.123L24.8073 99.8486C25.0462 99.6178 25.2024 99.3231 25.2598 98.9946C25.4077 98.1462 24.8381 97.3355 23.9916 97.1877ZM23.6871 98.759L22.2062 100.321C22.0426 100.493 21.9665 100.731 21.9994 100.967L22.2998 103.101L20.3141 102.155C20.0994 102.053 19.8499 102.054 19.6361 102.158L17.6996 103.102C17.7034 103.083 17.7066 103.064 17.709 103.046L17.9877 100.921C18.0187 100.685 17.9406 100.448 17.7756 100.277L16.2773 98.7282C16.2861 98.7269 16.2949 98.7254 16.3037 98.7238L18.4418 98.3264C18.6756 98.2829 18.8768 98.1355 18.9886 97.9256L19.9979 96.0259L21.0462 97.9542C21.1597 98.1631 21.3622 98.3089 21.5963 98.3503L23.721 98.7252C23.7095 98.7361 23.6981 98.7474 23.6871 98.759Z" fill="black"/>
<path d="M20.0002 91.6875C20.4317 91.6875 20.7815 91.3377 20.7815 90.9062C20.7815 90.4748 20.4317 90.125 20.0002 90.125C19.5687 90.125 19.2188 90.4748 19.2188 90.9062C19.2188 91.3377 19.5688 91.6875 20.0002 91.6875Z" fill="black"/>
</g>
</g>
</g>
<g clip-path="url(#clip2_23_34)">
<mask id="mask2_23_34" style="mask-type:luminance" maskUnits="userSpaceOnUse" x="44" y="87" width="40" height="40">
<path d="M84 87H44V127H84V87Z" fill="white"/>
</mask>
<g mask="url(#mask2_23_34)">
<path d="M83.2185 112.469H44.781C43.7445 112.51 43.7453 113.99 44.781 114.031H48.6403C51.3445 120.731 56.3054 124.966 63.7977 126.973C63.9302 127.009 64.0696 127.009 64.2021 126.973C71.6947 124.966 76.6558 120.731 79.3599 114.031H83.2185C84.2551 113.99 84.2543 112.51 83.2185 112.469ZM74.2042 114.031C73.9956 114.43 73.7759 114.814 73.547 115.179C71.4533 118.52 68.3289 120.804 63.9997 122.153C59.6706 120.804 56.5461 118.52 54.4524 115.179C54.2235 114.814 54.0038 114.43 53.7952 114.031L74.2042 114.031ZM63.9998 125.409C57.3491 123.577 52.8687 119.849 50.3345 114.031H52.0503C52.3796 114.727 52.7418 115.391 53.1285 116.008C55.4679 119.742 58.9503 122.264 63.7744 123.718C63.9214 123.763 64.0782 123.763 64.2253 123.718C69.0495 122.264 72.5318 119.742 74.8713 116.008C75.2579 115.391 75.62 114.727 75.9494 114.031H77.6657C75.1315 119.849 70.6509 123.577 63.9998 125.409Z" fill="black"/>
<path d="M44.7811 101.531H83.2186C84.2551 101.49 84.2543 100.01 83.2186 99.9688H81.9054C81.9478 98.8414 81.9684 97.6596 81.9684 96.375C81.9684 95.9435 81.6186 95.5938 81.1872 95.5938C76.8794 95.5938 73.3748 92.0891 73.3748 87.7812C73.3748 87.3498 73.025 87 72.5936 87H55.4061C54.9746 87 54.6248 87.3498 54.6248 87.7812C54.6248 92.0891 51.1202 95.5938 46.8124 95.5938C46.3809 95.5938 46.0311 95.9435 46.0311 96.375C46.0311 97.6613 46.0518 98.843 46.094 99.9688H44.7811C43.7444 100.01 43.7453 101.49 44.7811 101.531ZM47.5961 97.1237C52.1427 96.7459 55.7781 93.1093 56.1551 88.5625H71.8445C72.2215 93.1093 75.8568 96.7459 80.4035 97.1237C80.3968 98.1255 80.3764 99.0652 80.3417 99.9688H78.7812C78.7922 99.6801 78.8018 99.3863 78.8097 99.0902C78.8194 98.732 78.5841 98.4131 78.239 98.3167C74.568 97.2913 71.6574 94.3721 70.643 90.6983C70.5495 90.3596 70.2413 90.125 69.8899 90.125H67.5151C66.4786 90.1663 66.4793 91.6466 67.5151 91.6875H69.3104C70.5398 95.4208 73.502 98.3955 77.2296 99.6411C77.2258 99.751 77.2218 99.8602 77.2176 99.9688H50.782C50.7778 99.8602 50.7738 99.751 50.77 99.6411C54.4975 98.3955 57.4597 95.4208 58.6893 91.6875H60.484C61.5205 91.6462 61.5197 90.1659 60.484 90.125H58.1097C57.7583 90.125 57.4501 90.3596 57.3566 90.6983C56.3422 94.3721 53.4316 97.2914 49.7607 98.3167C49.4156 98.4131 49.1803 98.7319 49.1899 99.0901C49.1978 99.3861 49.2073 99.6799 49.2183 99.9687H47.6576C47.6231 99.0662 47.6028 98.1266 47.5961 97.1237Z" fill="black"/>
<path d="M64 91.6875C65.0365 91.6462 65.0357 90.1659 64 90.125C62.9634 90.1664 62.9643 91.6467 64 91.6875Z" fill="black"/>
<path d="M56.6606 110.906C57.0921 110.906 57.4419 110.556 57.4419 110.125V108.428C58.3513 108.106 59.0044 107.237 59.0044 106.218V103.875C58.9631 102.838 57.4828 102.839 57.4419 103.875V106.218C57.3988 107.255 55.922 107.254 55.8794 106.218V103.875C55.8381 102.838 54.3578 102.839 54.3169 103.875V106.218C54.3169 107.237 54.97 108.106 55.8794 108.428V110.125C55.8794 110.556 56.2292 110.906 56.6606 110.906Z" fill="black"/>
<path d="M63.6919 104.656C64.7285 104.615 64.7278 103.135 63.6919 103.094H60.9575C60.526 103.094 60.1763 103.443 60.1763 103.875V110.125C60.1763 110.556 60.526 110.906 60.9575 110.906H63.6919C64.7285 110.865 64.7278 109.385 63.6919 109.344H61.7388V107.781H62.5981C63.6347 107.74 63.6339 106.26 62.5981 106.219H61.7388V104.656H63.6919Z" fill="black"/>
<path d="M69.3955 110.906C69.8269 110.906 70.1768 110.556 70.1768 110.125V105.437C70.0476 102.327 65.6172 102.329 65.4893 105.437V110.125C65.5305 111.161 67.0108 111.16 67.0518 110.125V108.562H68.6143V110.125C68.6143 110.556 68.9641 110.906 69.3955 110.906ZM67.0518 106.999V105.437C67.0948 104.4 68.5716 104.401 68.6143 105.437V106.999H67.0518Z" fill="black"/>
<path d="M76.0362 105.437C76.0362 104.145 74.9848 103.094 73.6924 103.094H72.1299C71.6985 103.094 71.3486 103.443 71.3486 103.875V110.125C71.3899 111.162 72.8702 111.161 72.9111 110.125V107.781H73.2096L74.5562 110.474C74.7499 110.864 75.2268 111.015 75.6044 110.824C75.9903 110.631 76.1467 110.161 75.9538 109.775L74.8136 107.495C75.5414 107.097 76.0362 106.324 76.0362 105.437ZM72.9111 104.656H73.6924C74.7234 104.698 74.7311 106.164 73.7021 106.219C73.6932 106.218 73.6843 106.218 73.6753 106.219H72.9112L72.9111 104.656Z" fill="black"/>
<path d="M79.4676 109.285C79.2804 109.363 79.0757 109.363 78.8912 109.287L78.4759 109.115C78.0771 108.95 77.6203 109.139 77.4551 109.538C77.29 109.936 77.4793 110.393 77.8779 110.558L78.2933 110.73C79.4318 111.229 80.8685 110.633 81.3198 109.477C81.8086 108.297 81.2463 106.939 80.0662 106.45L79.2354 106.106C78.8612 105.96 78.6658 105.488 78.8274 105.121C78.9038 104.936 79.0489 104.792 79.236 104.715C79.4233 104.637 79.628 104.637 79.8124 104.713L80.2278 104.885C80.6263 105.05 81.0834 104.861 81.2485 104.462C81.4136 104.063 81.2242 103.606 80.8256 103.441L80.4102 103.269C79.8401 103.033 79.2107 103.034 78.638 103.271C78.0652 103.508 77.6198 103.953 77.3838 104.523C77.1476 105.093 77.1481 105.722 77.3854 106.295C77.6227 106.868 78.0673 107.313 78.6373 107.55L79.4681 107.894C79.8522 108.053 80.0352 108.495 79.8761 108.879C79.7998 109.063 79.6547 109.208 79.4676 109.285Z" fill="black"/>
<path d="M48.8479 103.094H47.2854C46.2489 103.135 46.2496 104.615 47.2854 104.656H48.8479C49.8848 104.699 49.8837 106.176 48.8479 106.219C48.4164 106.219 48.0667 106.569 48.0667 107C48.0667 107.432 48.4164 107.781 48.8479 107.781C49.8841 107.824 49.8843 109.301 48.8479 109.344H47.2854C46.2489 109.385 46.2496 110.865 47.2854 110.906H48.8479C50.8664 110.913 51.9371 108.478 50.5934 107C51.9377 105.522 50.8655 103.086 48.8479 103.094Z" fill="black"/>
</g>
</g>
<g clip-path="url(#clip3_23_34)">
<mask id="mask3_23_34" style="mask-type:luminance" maskUnits="userSpaceOnUse" x="88" y="87" width="40" height="40">
<path d="M128 87H88V127H128V87Z" fill="white"/>
</mask>
<g mask="url(#mask3_23_34)">
<path d="M92.5918 96.5198C92.5918 96.2424 92.8866 96.1035 93.1817 96.1035H96.1923C96.4785 96.1035 96.6 96.4072 96.6 96.6849C96.6 97.0056 96.4526 97.2833 96.1923 97.2833H93.9452V98.7497H95.2554C95.5157 98.7497 95.6631 99.0012 95.6631 99.2789C95.6631 99.5132 95.5416 99.7906 95.2554 99.7906H93.9452V102.029C93.9452 102.307 93.6068 102.446 93.2684 102.446C92.9302 102.446 92.5918 102.307 92.5918 102.029V96.5198Z" fill="black"/>
<path d="M97.0604 96.5112C97.0604 96.2942 97.2252 96.1035 97.4766 96.1035H99.2726C100.461 96.1035 101.407 96.546 101.407 97.9602C101.407 98.9319 100.964 99.4873 100.357 99.7214L101.415 101.639C101.45 101.691 101.459 101.751 101.459 101.795C101.459 102.133 101.008 102.498 100.609 102.498C100.435 102.498 100.27 102.428 100.175 102.246L98.9863 99.9384H98.4135V102.029C98.4135 102.307 98.0754 102.446 97.7369 102.446C97.3985 102.446 97.0601 102.307 97.0601 102.029L97.0604 96.5112ZM98.4138 97.2833V98.8971H99.2726C99.7584 98.8971 100.053 98.6975 100.053 98.0902C100.053 97.4829 99.7584 97.2833 99.2726 97.2833H98.4138Z" fill="black"/>
<path d="M103.48 98.7497H104.782C105.042 98.7497 105.19 99.0012 105.19 99.2789C105.19 99.5132 105.068 99.7906 104.782 99.7906H103.48V101.266H105.805C106.066 101.266 106.214 101.543 106.214 101.864C106.214 102.142 106.092 102.446 105.805 102.446H102.717C102.422 102.446 102.127 102.307 102.127 102.029V96.5198C102.127 96.2421 102.422 96.1035 102.717 96.1035H105.805C106.092 96.1035 106.214 96.4072 106.214 96.6846C106.214 97.0056 106.066 97.2833 105.805 97.2833H103.48V98.7497Z" fill="black"/>
<path d="M108.158 98.7497H109.459C109.719 98.7497 109.867 99.0012 109.867 99.2789C109.867 99.5132 109.745 99.7906 109.459 99.7906H108.158V101.266H110.483C110.743 101.266 110.89 101.543 110.89 101.864C110.89 102.142 110.769 102.446 110.483 102.446H107.394C107.099 102.446 106.804 102.307 106.804 102.029V96.5198C106.804 96.2421 107.099 96.1035 107.394 96.1035H110.483C110.769 96.1035 110.89 96.4072 110.89 96.6846C110.89 97.0056 110.743 97.2833 110.483 97.2833H108.158V98.7497Z" fill="black"/>
<path d="M101.565 107.091C101.238 107.091 100.941 106.879 100.83 106.572C100.716 106.258 100.823 105.892 101.089 105.69C101.335 105.502 101.675 105.478 101.946 105.628C102.238 105.79 102.395 106.134 102.33 106.462C102.259 106.822 101.932 107.091 101.565 107.091Z" fill="black"/>
<path d="M98.0321 107.091H92.1465C91.715 107.091 91.3652 106.741 91.3652 106.31C91.3652 105.878 91.715 105.528 92.1465 105.528H98.0321C98.4636 105.528 98.8134 105.878 98.8134 106.31C98.8134 106.741 98.4636 107.091 98.0321 107.091Z" fill="black"/>
<path d="M111.012 107.091H105.126C104.694 107.091 104.345 106.741 104.345 106.31C104.345 105.878 104.694 105.528 105.126 105.528H111.012C111.443 105.528 111.793 105.878 111.793 106.31C111.793 106.741 111.443 107.091 111.012 107.091Z" fill="black"/>
<path d="M125.357 105.528H124.762L121.824 98.937C121.209 97.5579 119.836 96.6634 118.326 96.6585L115.159 96.6481V94.1866C115.159 92.5069 113.795 91.1406 112.119 91.1406H91.0396C89.3635 91.1406 88 92.5069 88 94.1866V118.818C88 119.249 88.3497 119.599 88.7812 119.599H93.2292C93.7736 121.482 95.5131 122.863 97.5694 122.863C99.6257 122.863 101.366 121.482 101.91 119.599H115.333C115.877 121.482 117.616 122.863 119.673 122.863C121.729 122.863 123.468 121.482 124.013 119.599H127.219C127.65 119.599 128 119.249 128 118.818V108.171C128 106.714 126.814 105.528 125.357 105.528ZM126.438 108.171V113.83H115.159V107.091H125.357C125.953 107.091 126.438 107.576 126.438 108.171ZM115.166 118.036H102.076C102.007 117.03 101.607 116.112 100.983 115.393H116.259C115.635 116.112 115.235 117.03 115.166 118.036ZM89.5625 113.83V110.816H113.596V113.83H89.5625ZM118.321 98.221C119.217 98.2238 120.032 98.7548 120.397 99.5732L123.052 105.528H115.159V98.2106L118.321 98.221ZM89.5625 94.1866C89.5625 93.3684 90.225 92.7031 91.0396 92.7031H112.119C112.933 92.7031 113.596 93.3687 113.596 94.1866V109.253H89.5625V94.1866ZM89.5625 115.393H94.1554C93.5322 116.112 93.1318 117.03 93.0632 118.036H89.5625V115.393ZM97.5694 121.301C95.9404 121.301 94.6153 119.976 94.6153 118.347C94.6153 116.718 95.9404 115.393 97.5694 115.393C99.1984 115.393 100.524 116.718 100.524 118.347C100.524 119.976 99.1984 121.301 97.5694 121.301ZM119.673 121.301C118.044 121.301 116.718 119.976 116.718 118.347C116.718 116.718 118.044 115.393 119.673 115.393C121.302 115.393 122.627 116.718 122.627 118.347C122.627 119.976 121.301 121.301 119.673 121.301ZM126.438 118.036H124.179C124.11 117.03 123.71 116.112 123.087 115.393H126.438V118.036Z" fill="black"/>
</g>
</g>
<g clip-path="url(#clip4_23_34)">
<path d="M159.688 113.907H157.29L156.045 113.352V111.84C157.789 110.879 159.157 109.318 159.868 107.436H160.937C163.481 107.436 165.551 105.366 165.551 102.822C165.551 101.179 164.687 99.7348 163.391 98.9171V98.3909C163.391 92.1099 158.281 87 152 87C145.719 87 140.609 92.1099 140.609 98.391V98.9168C139.312 99.7345 138.448 101.179 138.448 102.822C138.448 105.366 140.518 107.436 143.062 107.436H144.131C144.843 109.318 146.211 110.879 147.955 111.84V113.346L146.696 113.906H144.312C137.523 113.907 132 119.43 132 126.219C132 126.65 132.35 127 132.781 127H148.484C148.916 127 149.266 126.65 149.266 126.219C149.266 125.787 148.916 125.438 148.484 125.438H133.591C133.98 120.038 138.375 115.732 143.811 115.481C143.809 115.487 143.806 115.494 143.804 115.5C143.74 115.723 143.779 115.962 143.909 116.154L147.605 121.587C147.736 121.779 147.946 121.903 148.178 121.925C148.202 121.927 148.227 121.929 148.251 121.929C148.457 121.929 148.656 121.847 148.803 121.7L151.993 118.51L155.183 121.7C155.33 121.847 155.529 121.929 155.735 121.929C155.759 121.929 155.784 121.927 155.808 121.925C156.04 121.903 156.25 121.779 156.381 121.587L160.077 116.154C160.207 115.962 160.246 115.723 160.182 115.5C160.18 115.493 160.177 115.487 160.175 115.48C165.618 115.725 170.02 120.034 170.41 125.438H155.516C155.084 125.438 154.734 125.787 154.734 126.219C154.734 126.65 155.084 127 155.516 127H171.219C171.65 127 172 126.65 172 126.219C172 119.43 166.477 113.907 159.688 113.907ZM158.831 99.1576C157.226 98.9372 155.72 98.2977 154.44 97.2852C154.159 97.0631 153.764 97.0602 153.48 97.278C151.801 98.5657 149.794 99.2463 147.674 99.2463C146.823 99.2463 145.984 99.133 145.172 98.9127V98.5155C145.172 94.7506 148.235 91.6875 152 91.6875C155.765 91.6875 158.828 94.7506 158.828 98.5155C158.828 98.5155 158.829 99.1366 158.831 99.1576ZM160.937 105.874H160.409V99.7702H160.937C162.62 99.7702 163.989 101.139 163.989 102.822C163.989 104.505 162.62 105.874 160.937 105.874ZM152 88.5625C157.387 88.5625 161.775 92.9194 161.827 98.2947C161.539 98.2381 161.242 98.2077 160.937 98.2077H160.384C160.221 93.7232 156.523 90.125 152 90.125C147.476 90.125 143.778 93.7232 143.615 98.2077H143.062C142.758 98.2077 142.461 98.238 142.173 98.2946C142.225 92.9194 146.613 88.5625 152 88.5625ZM143.59 105.874H143.062C141.38 105.874 140.011 104.505 140.011 102.822C140.011 101.139 141.38 99.7701 143.062 99.7701H143.59L143.59 105.874ZM145.153 104.469V100.521C145.976 100.712 146.82 100.809 147.674 100.809C149.941 100.809 152.098 100.14 153.949 98.8678C155.403 99.8931 157.077 100.53 158.847 100.734V104.511C158.842 105.243 158.722 105.949 158.504 106.61H154.773C154.45 105.697 153.579 105.041 152.557 105.041H151.511C150.215 105.041 149.161 106.096 149.161 107.391C149.161 108.687 150.215 109.741 151.511 109.741H152.557C153.579 109.741 154.45 109.085 154.773 108.173H157.757C156.537 110.062 154.412 111.316 152 111.316C148.224 111.316 145.153 108.245 145.153 104.469ZM153.345 107.391C153.345 107.826 152.992 108.179 152.557 108.179H151.511C151.077 108.179 150.724 107.826 150.724 107.391C150.724 106.957 151.077 106.604 151.511 106.604H152.557C152.992 106.604 153.345 106.957 153.345 107.391ZM152 112.879C152.864 112.879 153.697 112.748 154.482 112.505V113.811L151.993 116.3L149.518 113.825V112.505C150.303 112.748 151.136 112.879 152 112.879ZM148.366 119.927L145.727 116.048L148.359 114.876L150.888 117.405L148.366 119.927ZM155.62 119.927L153.098 117.405L155.627 114.876L158.259 116.048L155.62 119.927Z" fill="black"/>
<path d="M152 125.438C151.794 125.438 151.593 125.521 151.448 125.666C151.302 125.812 151.219 126.013 151.219 126.219C151.219 126.424 151.302 126.626 151.448 126.771C151.593 126.916 151.794 127 152 127C152.205 127 152.407 126.916 152.552 126.771C152.698 126.626 152.781 126.424 152.781 126.219C152.781 126.013 152.698 125.812 152.552 125.666C152.407 125.521 152.205 125.438 152 125.438Z" fill="black"/>
</g>
<defs>
<clipPath id="clip0_23_34">
<rect width="30" height="40" fill="white" transform="translate(0 43)"/>
</clipPath>
<clipPath id="clip1_23_34">
<rect width="40" height="40" fill="white" transform="translate(0 87)"/>
</clipPath>
<clipPath id="clip2_23_34">
<rect width="40" height="40" fill="white" transform="translate(44 87)"/>
</clipPath>
<clipPath id="clip3_23_34">
<rect width="40" height="40" fill="white" transform="translate(88 87)"/>
</clipPath>
<clipPath id="clip4_23_34">
<rect width="40" height="40" fill="white" transform="translate(132 87)"/>
</clipPath>
</defs>
</svg>
