<svg width="26" height="12" viewBox="0 0 26 12" fill="none" xmlns="http://www.w3.org/2000/svg">
<path d="M14 0.4C14 0.179086 14.1791 0 14.4 0H15.6C15.7835 0 15.9435 0.124919 15.9881 0.302986L16.3123 1.6H25.6C25.719 1.6 25.8318 1.65298 25.9078 1.74455C25.9838 1.83611 26.0151 1.95676 25.9931 2.07372L24.7931 8.47372C24.7577 8.6629 24.5925 8.8 24.4 8.8H23.6H18H17.2C17.0075 8.8 16.8423 8.6629 16.8069 8.47372L15.609 2.08544L15.2877 0.8H14.4C14.1791 0.8 14 0.620914 14 0.4ZM16.482 2.4L17.532 8H24.068L25.118 2.4H16.482ZM18 8.8C17.1163 8.8 16.4 9.51634 16.4 10.4C16.4 11.2837 17.1163 12 18 12C18.8837 12 19.6 11.2837 19.6 10.4C19.6 9.51634 18.8837 8.8 18 8.8ZM23.6 8.8C22.7163 8.8 22 9.51634 22 10.4C22 11.2837 22.7163 12 23.6 12C24.4837 12 25.2 11.2837 25.2 10.4C25.2 9.51634 24.4837 8.8 23.6 8.8ZM18 9.6C18.4418 9.6 18.8 9.95817 18.8 10.4C18.8 10.8418 18.4418 11.2 18 11.2C17.5582 11.2 17.2 10.8418 17.2 10.4C17.2 9.95817 17.5582 9.6 18 9.6ZM23.6 9.6C24.0418 9.6 24.4 9.95817 24.4 10.4C24.4 10.8418 24.0418 11.2 23.6 11.2C23.1582 11.2 22.8 10.8418 22.8 10.4C22.8 9.95817 23.1582 9.6 23.6 9.6Z" fill="#CED4DA"/>
<path d="M6 6C7.65685 6 9 4.65685 9 3C9 1.34315 7.65685 0 6 0C4.34315 0 3 1.34315 3 3C3 4.65685 4.34315 6 6 6ZM8 3C8 4.10457 7.10457 5 6 5C4.89543 5 4 4.10457 4 3C4 1.89543 4.89543 1 6 1C7.10457 1 8 1.89543 8 3Z" fill="#CED4DA"/>
<path d="M12 11C12 12 11 12 11 12H1C1 12 0 12 0 11C0 10 1 7 6 7C11 7 12 10 12 11ZM11 10.9965C10.9986 10.7497 10.8462 10.0104 10.1679 9.33211C9.51563 8.67985 8.2891 8 5.99999 8C3.71088 8 2.48435 8.67985 1.8321 9.33211C1.15375 10.0104 1.00142 10.7497 1 10.9965H11Z" fill="#CED4DA"/>
</svg>
