<svg width="76" height="83" viewBox="0 0 76 83" fill="none" xmlns="http://www.w3.org/2000/svg">
<path d="M15.9856 6.5C15.7858 8.97828 13.7428 11 11.5 11C9.25719 11 7.21062 8.97875 7.01438 6.5C6.81049 3.92188 8.79843 2 11.5 2C14.2016 2 16.1895 3.96875 15.9856 6.5Z" stroke="#CED4DA" stroke-width="1.49989" stroke-linecap="round" stroke-linejoin="round"/>
<path d="M11.4998 14C7.19523 14 2.82639 16.4 2.01793 20.93C1.92046 21.476 2.22623 22 2.79176 22H20.2078C20.7738 22 21.0795 21.476 20.9821 20.93C20.1731 16.4 15.8043 14 11.4998 14Z" stroke="#CED4DA" stroke-width="1.49989" stroke-miterlimit="10"/>
<path d="M27 1.75C27 1.55109 27.079 1.36032 27.2197 1.21967C27.3603 1.07902 27.5511 1 27.75 1H30C30.1673 1.00005 30.3298 1.05603 30.4616 1.15904C30.5934 1.26205 30.687 1.40618 30.7275 1.5685L31.335 4H48.75C48.8601 4.0001 48.9689 4.02445 49.0685 4.07133C49.1682 4.1182 49.2563 4.18644 49.3266 4.27121C49.3969 4.35597 49.4477 4.45518 49.4753 4.56178C49.5029 4.66838 49.5068 4.77976 49.4865 4.888L47.2365 16.888C47.2043 17.0599 47.1131 17.2151 46.9786 17.3268C46.8442 17.4386 46.6749 17.4998 46.5 17.5H33C32.8251 17.4998 32.6558 17.4386 32.5214 17.3268C32.3869 17.2151 32.2957 17.0599 32.2635 16.888L30.015 4.9105L29.415 2.5H27.75C27.5511 2.5 27.3603 2.42098 27.2197 2.28033C27.079 2.13968 27 1.94891 27 1.75ZM31.653 5.5L33.6225 16H45.8775L47.847 5.5H31.653ZM34.5 17.5C33.7044 17.5 32.9413 17.8161 32.3787 18.3787C31.8161 18.9413 31.5 19.7044 31.5 20.5C31.5 21.2956 31.8161 22.0587 32.3787 22.6213C32.9413 23.1839 33.7044 23.5 34.5 23.5C35.2957 23.5 36.0587 23.1839 36.6213 22.6213C37.1839 22.0587 37.5 21.2956 37.5 20.5C37.5 19.7044 37.1839 18.9413 36.6213 18.3787C36.0587 17.8161 35.2957 17.5 34.5 17.5ZM45 17.5C44.2044 17.5 43.4413 17.8161 42.8787 18.3787C42.3161 18.9413 42 19.7044 42 20.5C42 21.2956 42.3161 22.0587 42.8787 22.6213C43.4413 23.1839 44.2044 23.5 45 23.5C45.7957 23.5 46.5587 23.1839 47.1213 22.6213C47.6839 22.0587 48 21.2956 48 20.5C48 19.7044 47.6839 18.9413 47.1213 18.3787C46.5587 17.8161 45.7957 17.5 45 17.5ZM34.5 19C34.8978 19 35.2794 19.158 35.5607 19.4393C35.842 19.7206 36 20.1022 36 20.5C36 20.8978 35.842 21.2794 35.5607 21.5607C35.2794 21.842 34.8978 22 34.5 22C34.1022 22 33.7206 21.842 33.4393 21.5607C33.158 21.2794 33 20.8978 33 20.5C33 20.1022 33.158 19.7206 33.4393 19.4393C33.7206 19.158 34.1022 19 34.5 19ZM45 19C45.3978 19 45.7794 19.158 46.0607 19.4393C46.342 19.7206 46.5 20.1022 46.5 20.5C46.5 20.8978 46.342 21.2794 46.0607 21.5607C45.7794 21.842 45.3978 22 45 22C44.6022 22 44.2206 21.842 43.9393 21.5607C43.658 21.2794 43.5 20.8978 43.5 20.5C43.5 20.1022 43.658 19.7206 43.9393 19.4393C44.2206 19.158 44.6022 19 45 19Z" fill="#CED4DA"/>
<g clip-path="url(#clip0_12_20)">
<path d="M25.8518 57.9026H24.6292V53.0125C24.6292 47.6187 20.2428 43.2323 14.849 43.2323C9.45524 43.2323 5.06881 47.6187 5.06881 53.0125V57.9026H3.84629C1.82505 57.9026 0.178711 59.5473 0.178711 61.5702V78.6855C0.178711 80.7084 1.82505 82.3531 3.84629 82.3531H25.8518C27.873 82.3531 29.5193 80.7084 29.5193 78.6855V61.5702C29.5193 59.5473 27.873 57.9026 25.8518 57.9026ZM8.32888 53.0125C8.32888 49.4166 11.2532 46.4924 14.849 46.4924C18.4449 46.4924 21.3692 49.4166 21.3692 53.0125V57.9026H8.32888V53.0125Z" fill="#212529"/>
<path d="M15.6259 72.4684H13.8114V71.4888C13.8114 71.0606 13.8595 70.7448 13.9559 70.5414C14.0629 70.3273 14.2878 70.0489 14.6303 69.7064L15.8026 68.5341C16.0488 68.2665 16.1719 67.9346 16.1719 67.5385C16.1719 67.1424 16.0435 66.8159 15.7865 66.559C15.5296 66.2913 15.1977 66.1575 14.7909 66.1575C14.3841 66.1575 14.0415 66.286 13.7632 66.5429C13.4956 66.7891 13.3403 67.121 13.2975 67.5385H11.3545C11.4615 66.5857 11.8309 65.8417 12.4625 65.3064C13.1048 64.7604 13.9024 64.4875 14.8551 64.4875C15.8079 64.4875 16.5841 64.7497 17.1836 65.2743C17.7831 65.7882 18.0828 66.5108 18.0828 67.4422C18.0828 68.0845 17.9062 68.6198 17.5529 69.048C17.3495 69.3049 17.1943 69.4869 17.0872 69.594C16.9802 69.701 16.8357 69.8402 16.6537 70.0115C16.4824 70.1721 16.3325 70.3166 16.204 70.445C16.0863 70.5628 15.9899 70.6645 15.915 70.7502C15.7223 70.9857 15.6259 71.3175 15.6259 71.7458V72.4684ZM14.7427 76.0333C14.4109 76.0333 14.1218 75.9209 13.8756 75.6961C13.6294 75.4606 13.5063 75.1822 13.5063 74.861C13.5063 74.5292 13.624 74.2455 13.8595 74.01C14.1058 73.7744 14.3948 73.6567 14.7267 73.6567C15.0693 73.6567 15.3637 73.7744 15.6099 74.01C15.8561 74.2348 15.9792 74.5131 15.9792 74.845C15.9792 75.1662 15.8561 75.4445 15.6099 75.68C15.3744 75.9155 15.0853 76.0333 14.7427 76.0333Z" fill="white"/>
</g>
<path d="M68.386 16.386L72.4737 20.4737M68.386 16.386C65.4442 19.3279 60.6745 19.3279 57.7327 16.386C54.7908 13.4442 54.7908 8.6745 57.7327 5.7327C60.6745 2.7908 65.4442 2.7908 68.386 5.7327C71.3279 8.6745 71.3279 13.4442 68.386 16.386Z" stroke="#CED4DA" stroke-linecap="round" stroke-linejoin="round"/>
<defs>
<clipPath id="clip0_12_20">
<rect width="30" height="40" fill="white" transform="translate(0 43)"/>
</clipPath>
</defs>
</svg>
