<svg width="81" height="128" viewBox="0 0 81 128" fill="none" xmlns="http://www.w3.org/2000/svg">
<path d="M20.9856 6.5C20.7858 8.97828 18.7428 11 16.5 11C14.2572 11 12.2106 8.97875 12.0144 6.5C11.8105 3.92188 13.7984 2 16.5 2C19.2016 2 21.1895 3.96875 20.9856 6.5Z" stroke="#CED4DA" stroke-width="1.49989" stroke-linecap="round" stroke-linejoin="round"/>
<path d="M16.4998 14C12.1952 14 7.82639 16.4 7.01793 20.93C6.92046 21.476 7.22623 22 7.79176 22H25.2078C25.7738 22 26.0795 21.476 25.9821 20.93C25.1731 16.4 20.8043 14 16.4998 14Z" stroke="#CED4DA" stroke-width="1.49989" stroke-miterlimit="10"/>
<path d="M32 1.75C32 1.55109 32.079 1.36032 32.2197 1.21967C32.3603 1.07902 32.5511 1 32.75 1H35C35.1673 1.00005 35.3298 1.05603 35.4616 1.15904C35.5934 1.26205 35.687 1.40618 35.7275 1.5685L36.335 4H53.75C53.8601 4.0001 53.9689 4.02445 54.0685 4.07133C54.1682 4.1182 54.2563 4.18644 54.3266 4.27121C54.3969 4.35597 54.4477 4.45518 54.4753 4.56178C54.5029 4.66838 54.5068 4.77976 54.4865 4.888L52.2365 16.888C52.2043 17.0599 52.1131 17.2151 51.9786 17.3268C51.8442 17.4386 51.6749 17.4998 51.5 17.5H38C37.8251 17.4998 37.6558 17.4386 37.5214 17.3268C37.3869 17.2151 37.2957 17.0599 37.2635 16.888L35.015 4.9105L34.415 2.5H32.75C32.5511 2.5 32.3603 2.42098 32.2197 2.28033C32.079 2.13968 32 1.94891 32 1.75ZM36.653 5.5L38.6225 16H50.8775L52.847 5.5H36.653ZM39.5 17.5C38.7044 17.5 37.9413 17.8161 37.3787 18.3787C36.8161 18.9413 36.5 19.7044 36.5 20.5C36.5 21.2956 36.8161 22.0587 37.3787 22.6213C37.9413 23.1839 38.7044 23.5 39.5 23.5C40.2957 23.5 41.0587 23.1839 41.6213 22.6213C42.1839 22.0587 42.5 21.2956 42.5 20.5C42.5 19.7044 42.1839 18.9413 41.6213 18.3787C41.0587 17.8161 40.2957 17.5 39.5 17.5ZM50 17.5C49.2044 17.5 48.4413 17.8161 47.8787 18.3787C47.3161 18.9413 47 19.7044 47 20.5C47 21.2956 47.3161 22.0587 47.8787 22.6213C48.4413 23.1839 49.2044 23.5 50 23.5C50.7957 23.5 51.5587 23.1839 52.1213 22.6213C52.6839 22.0587 53 21.2956 53 20.5C53 19.7044 52.6839 18.9413 52.1213 18.3787C51.5587 17.8161 50.7957 17.5 50 17.5ZM39.5 19C39.8978 19 40.2794 19.158 40.5607 19.4393C40.842 19.7206 41 20.1022 41 20.5C41 20.8978 40.842 21.2794 40.5607 21.5607C40.2794 21.842 39.8978 22 39.5 22C39.1022 22 38.7206 21.842 38.4393 21.5607C38.158 21.2794 38 20.8978 38 20.5C38 20.1022 38.158 19.7206 38.4393 19.4393C38.7206 19.158 39.1022 19 39.5 19ZM50 19C50.3978 19 50.7794 19.158 51.0607 19.4393C51.342 19.7206 51.5 20.1022 51.5 20.5C51.5 20.8978 51.342 21.2794 51.0607 21.5607C50.7794 21.842 50.3978 22 50 22C49.6022 22 49.2206 21.842 48.9393 21.5607C48.658 21.2794 48.5 20.8978 48.5 20.5C48.5 20.1022 48.658 19.7206 48.9393 19.4393C49.2206 19.158 49.6022 19 50 19Z" fill="#CED4DA"/>
<g clip-path="url(#clip0_19_10)">
<path d="M30.8518 57.9026H29.6292V53.0125C29.6292 47.6187 25.2428 43.2323 19.849 43.2323C14.4552 43.2323 10.0688 47.6187 10.0688 53.0125V57.9026H8.84629C6.82505 57.9026 5.17871 59.5473 5.17871 61.5702V78.6855C5.17871 80.7084 6.82505 82.3531 8.84629 82.3531H30.8518C32.873 82.3531 34.5193 80.7084 34.5193 78.6855V61.5702C34.5193 59.5473 32.873 57.9026 30.8518 57.9026ZM13.3289 53.0125C13.3289 49.4166 16.2532 46.4924 19.849 46.4924C23.4449 46.4924 26.3692 49.4166 26.3692 53.0125V57.9026H13.3289V53.0125Z" fill="#212529"/>
<path d="M20.6259 72.4684H18.8114V71.4888C18.8114 71.0606 18.8595 70.7448 18.9559 70.5414C19.0629 70.3273 19.2878 70.0489 19.6303 69.7064L20.8026 68.5341C21.0488 68.2665 21.1719 67.9346 21.1719 67.5385C21.1719 67.1424 21.0435 66.8159 20.7865 66.559C20.5296 66.2913 20.1977 66.1575 19.7909 66.1575C19.3841 66.1575 19.0415 66.286 18.7632 66.5429C18.4956 66.7891 18.3403 67.121 18.2975 67.5385H16.3545C16.4615 66.5857 16.8309 65.8417 17.4625 65.3064C18.1048 64.7604 18.9024 64.4875 19.8551 64.4875C20.8079 64.4875 21.5841 64.7497 22.1836 65.2743C22.7831 65.7882 23.0828 66.5108 23.0828 67.4422C23.0828 68.0845 22.9062 68.6198 22.5529 69.048C22.3495 69.3049 22.1943 69.4869 22.0872 69.594C21.9802 69.701 21.8357 69.8402 21.6537 70.0115C21.4824 70.1721 21.3325 70.3166 21.204 70.445C21.0863 70.5628 20.9899 70.6645 20.915 70.7502C20.7223 70.9857 20.6259 71.3175 20.6259 71.7458V72.4684ZM19.7427 76.0333C19.4109 76.0333 19.1218 75.9209 18.8756 75.6961C18.6294 75.4606 18.5063 75.1822 18.5063 74.861C18.5063 74.5292 18.624 74.2455 18.8595 74.01C19.1058 73.7744 19.3948 73.6567 19.7267 73.6567C20.0693 73.6567 20.3637 73.7744 20.6099 74.01C20.8561 74.2348 20.9792 74.5131 20.9792 74.845C20.9792 75.1662 20.8561 75.4445 20.6099 75.68C20.3744 75.9155 20.0853 76.0333 19.7427 76.0333Z" fill="white"/>
</g>
<path d="M73.386 16.386L77.4737 20.4737M73.386 16.386C70.4442 19.3279 65.6745 19.3279 62.7327 16.386C59.7908 13.4442 59.7908 8.6745 62.7327 5.7327C65.6745 2.7908 70.4442 2.7908 73.386 5.7327C76.3279 8.6745 76.3279 13.4442 73.386 16.386Z" stroke="#CED4DA" stroke-linecap="round" stroke-linejoin="round"/>
<path d="M35 94.6667H30V93C30 92.558 29.8244 92.1341 29.5118 91.8215C29.1993 91.5089 28.7754 91.3333 28.3333 91.3333H11.6667C11.2246 91.3333 10.8007 91.5089 10.4882 91.8215C10.1756 92.1341 10 92.558 10 93V94.6667H5C4.55797 94.6667 4.13405 94.8423 3.82149 95.1548C3.50893 95.4674 3.33333 95.8913 3.33333 96.3333V101.333C3.33333 103.101 4.03571 104.797 5.28595 106.047C6.5362 107.298 8.23189 108 10 108H12.5667C14.0742 109.682 16.1068 110.804 18.3333 111.183V114.667H16.6667C15.3406 114.667 14.0688 115.193 13.1311 116.131C12.1935 117.069 11.6667 118.341 11.6667 119.667V123C11.6667 123.442 11.8423 123.866 12.1548 124.179C12.4674 124.491 12.8913 124.667 13.3333 124.667H26.6667C27.1087 124.667 27.5326 124.491 27.8452 124.179C28.1577 123.866 28.3333 123.442 28.3333 123V119.667C28.3333 118.341 27.8065 117.069 26.8689 116.131C25.9312 115.193 24.6594 114.667 23.3333 114.667H21.6667V111.183C23.8932 110.804 25.9258 109.682 27.4333 108H30C31.7681 108 33.4638 107.298 34.714 106.047C35.9643 104.797 36.6667 103.101 36.6667 101.333V96.3333C36.6667 95.8913 36.4911 95.4674 36.1785 95.1548C35.866 94.8423 35.442 94.6667 35 94.6667ZM10 104.667C9.11594 104.667 8.2681 104.315 7.64298 103.69C7.01786 103.065 6.66667 102.217 6.66667 101.333V98H10V101.333C10.0037 102.47 10.2009 103.597 10.5833 104.667H10ZM23.3333 118C23.7754 118 24.1993 118.176 24.5118 118.488C24.8244 118.801 25 119.225 25 119.667V121.333H15V119.667C15 119.225 15.1756 118.801 15.4882 118.488C15.8007 118.176 16.2246 118 16.6667 118H23.3333ZM26.6667 101.333C26.6667 103.101 25.9643 104.797 24.714 106.047C23.4638 107.298 21.7681 108 20 108C18.2319 108 16.5362 107.298 15.286 106.047C14.0357 104.797 13.3333 103.101 13.3333 101.333V94.6667H26.6667V101.333ZM33.3333 101.333C33.3333 102.217 32.9821 103.065 32.357 103.69C31.7319 104.315 30.8841 104.667 30 104.667H29.4167C29.7991 103.597 29.9963 102.47 30 101.333V98H33.3333V101.333Z" fill="#212529"/>
<defs>
<clipPath id="clip0_19_10">
<rect width="30" height="40" fill="white" transform="translate(5 43)"/>
</clipPath>
</defs>
</svg>
